<?xml version="1.0" encoding="UTF-8"?>
<!DOCTYPE svg PUBLIC "-//W3C//DTD SVG 1.1//EN" "http://www.w3.org/Graphics/SVG/1.1/DTD/svg11.dtd">
<!-- Creator: CorelDRAW -->
<svg xmlns="http://www.w3.org/2000/svg" xml:space="preserve" width="30.2686mm" height="6.1355mm" version="1.1" style="shape-rendering:geometricPrecision; text-rendering:geometricPrecision; image-rendering:optimizeQuality; fill-rule:evenodd; clip-rule:evenodd"
viewBox="0 0 706.45 143.2"
 xmlns:xlink="http://www.w3.org/1999/xlink"
 xmlns:xodm="http://www.corel.com/coreldraw/odm/2003">
 <defs>
  <style type="text/css">
   <![CDATA[
    .fil0 {fill:#373435;fill-rule:nonzero}
   ]]>
  </style>
 </defs>
 <g id="Layer_x0020_1">
  <metadata id="CorelCorpID_0Corel-Layer"/>
  <path class="fil0" d="M52.79 143.2c-6.72,0 -13.24,-0.69 -19.66,-2.04 -6.39,-1.35 -12.38,-3.33 -17.98,-5.93 -5.6,-2.6 -10.64,-5.73 -15.15,-9.39l12.25 -21.83c5.4,4.45 11.66,7.87 18.74,10.31 7.05,2.41 14.33,3.59 21.8,3.59 8.6,0 15.28,-1.45 20.06,-4.38 4.78,-2.93 7.15,-7.05 7.15,-12.43 0,-4.1 -1.19,-7.23 -3.59,-9.37 -2.37,-2.14 -5.5,-3.76 -9.39,-4.78 -3.89,-1.02 -8.13,-1.91 -12.71,-2.6 -5.47,-0.86 -10.97,-1.88 -16.57,-3.13 -5.6,-1.25 -10.77,-3.26 -15.45,-6 -4.71,-2.73 -8.47,-6.65 -11.33,-11.72 -2.87,-5.07 -4.32,-11.86 -4.32,-20.4 0,-13.75 4.51,-24.35 13.5,-31.83 9.02,-7.51 21.77,-11.26 38.24,-11.26 7.57,0 15.28,1.28 23.15,3.82 7.84,2.54 15.15,6.16 21.9,10.87l-11.2 22.36c-5.4,-3.79 -11.07,-6.69 -16.93,-8.73 -5.9,-2.01 -11.53,-3.03 -16.93,-3.03 -8.14,0 -14.39,1.32 -18.84,3.98 -4.45,2.7 -6.65,6.42 -6.65,11.31 0,4.53 1.32,7.95 3.95,10.26 2.63,2.34 6.09,4.05 10.34,5.17 4.25,1.12 8.79,2.17 13.7,3.13 5.4,1.02 10.77,2.31 16.11,3.82 5.34,1.51 10.24,3.69 14.65,6.52 4.45,2.83 7.97,6.72 10.64,11.66 2.63,4.97 3.95,11.4 3.95,19.4 0,13.6 -4.67,24.07 -14,31.52 -9.32,7.41 -22.49,11.13 -39.45,11.13zm101.11 -141.75l0 140.3 -27.4 0 0 -140.3 27.4 0zm73.05 141.75c-6.72,0 -13.24,-0.69 -19.66,-2.04 -6.39,-1.35 -12.38,-3.33 -17.98,-5.93 -5.6,-2.6 -10.64,-5.73 -15.15,-9.39l12.25 -21.83c5.4,4.45 11.66,7.87 18.74,10.31 7.05,2.41 14.33,3.59 21.8,3.59 8.6,0 15.28,-1.45 20.06,-4.38 4.78,-2.93 7.15,-7.05 7.15,-12.43 0,-4.1 -1.19,-7.23 -3.59,-9.37 -2.37,-2.14 -5.5,-3.76 -9.39,-4.78 -3.89,-1.02 -8.13,-1.91 -12.71,-2.6 -5.47,-0.86 -10.97,-1.88 -16.57,-3.13 -5.6,-1.25 -10.77,-3.26 -15.45,-6 -4.71,-2.73 -8.47,-6.65 -11.33,-11.72 -2.87,-5.07 -4.32,-11.86 -4.32,-20.4 0,-13.75 4.51,-24.35 13.5,-31.83 9.02,-7.51 21.77,-11.26 38.24,-11.26 7.57,0 15.28,1.28 23.15,3.82 7.84,2.54 15.15,6.16 21.9,10.87l-11.2 22.36c-5.4,-3.79 -11.07,-6.69 -16.93,-8.73 -5.9,-2.01 -11.53,-3.03 -16.93,-3.03 -8.14,0 -14.39,1.32 -18.84,3.98 -4.45,2.7 -6.65,6.42 -6.65,11.31 0,4.53 1.32,7.95 3.95,10.26 2.63,2.34 6.09,4.05 10.34,5.17 4.25,1.12 8.79,2.17 13.7,3.13 5.4,1.02 10.77,2.31 16.11,3.82 5.34,1.51 10.24,3.69 14.65,6.52 4.45,2.83 7.97,6.72 10.64,11.66 2.63,4.97 3.95,11.4 3.95,19.4 0,13.6 -4.67,24.07 -14,31.52 -9.32,7.41 -22.49,11.13 -39.45,11.13zm124.82 -79.9l48.64 0 0 27.4c0,10.57 -2.11,19.76 -6.36,27.66 -4.25,7.87 -10.18,13.96 -17.82,18.31 -7.61,4.35 -16.57,6.52 -26.87,6.52 -10.28,0 -19.33,-2.04 -27.11,-6.13 -7.77,-4.08 -13.8,-9.85 -18.08,-17.29 -4.28,-7.41 -6.42,-16.07 -6.42,-25.99l0 -41.4c0,-10.54 2.14,-19.73 6.42,-27.6 4.28,-7.84 10.21,-13.93 17.85,-18.28 7.61,-4.35 16.53,-6.52 26.78,-6.52 8.46,0 16.2,1.74 23.19,5.2 6.98,3.49 12.84,8.33 17.62,14.59 4.74,6.22 7.97,13.54 9.65,21.9l-28.55 0c-1.42,-4.58 -4.22,-8.1 -8.4,-10.57 -4.18,-2.47 -8.69,-3.72 -13.5,-3.72 -7.21,0 -12.94,2.31 -17.22,6.85 -4.28,4.58 -6.42,10.64 -6.42,18.15l0 41.4c0,6.69 2.21,12.02 6.62,16.01 4.38,3.99 10.28,5.99 17.59,5.99 7.15,0 12.88,-2.17 17.19,-6.52 4.31,-4.35 6.45,-10.41 6.45,-18.18l0 -2.31 -21.24 0 0 -25.49zm168.66 78.45l-93.96 0 0 -140.3 93.96 0 0 25.49 -67.55 0 0 32.41 56.95 0 0 25.46 -56.95 0 0 31.48 67.55 0 0 25.46zm49.6 -140.3l0 140.3 -27.4 0 0 -140.3 27.4 0zm111.16 102.85l0 -102.85 25.26 0 0 140.2 -32.51 0 -49.7 -101.26 0 101.26 -25.26 0 0 -140.2 32.31 0 49.9 102.85z"/>
 </g>
</svg>
